<svg width="124" height="38" viewBox="0 0 124 38" fill="none" xmlns="http://www.w3.org/2000/svg">
<rect width="124" height="38" rx="12" fill="#724BF2"/>
<path d="M51.331 17.2173C51.0625 15.2784 49.571 14.1534 47.6364 14.1534C45.3565 14.1534 43.6392 15.8153 43.6392 18.6364C43.6392 21.4531 45.3352 23.1193 47.6364 23.1193C49.7116 23.1193 51.0881 21.777 51.331 20.1108L49.7372 20.1023C49.5369 21.125 48.7017 21.7003 47.6577 21.7003C46.2429 21.7003 45.2287 20.6392 45.2287 18.6364C45.2287 16.6676 46.2344 15.5724 47.6619 15.5724C48.723 15.5724 49.554 16.1733 49.7372 17.2173H51.331ZM56.8825 20.2472C56.8825 21.2443 56.1708 21.7386 55.489 21.7386C54.7475 21.7386 54.2532 21.2145 54.2532 20.3835V16.4545H52.7106V20.6222C52.7106 22.1946 53.6055 23.0852 54.8924 23.0852C55.8725 23.0852 56.5629 22.5696 56.8612 21.8366H56.9293V23H58.4251V16.4545H56.8825V20.2472ZM65.1847 18.1847C64.9716 17.0767 64.0852 16.3693 62.5511 16.3693C60.9744 16.3693 59.9006 17.1449 59.9048 18.3551C59.9006 19.3097 60.4886 19.9403 61.7457 20.2003L62.8622 20.4347C63.4631 20.5668 63.7443 20.8097 63.7443 21.1804C63.7443 21.6278 63.2585 21.9645 62.5256 21.9645C61.8182 21.9645 61.358 21.6577 61.2259 21.0696L59.7216 21.2145C59.9134 22.4162 60.9233 23.1278 62.5298 23.1278C64.1662 23.1278 65.321 22.2798 65.3253 21.0398C65.321 20.1065 64.7202 19.5355 63.4844 19.267L62.3679 19.0284C61.7031 18.8793 61.4389 18.6491 61.4432 18.2699C61.4389 17.8267 61.929 17.5199 62.5724 17.5199C63.2841 17.5199 63.6591 17.9077 63.7784 18.3381L65.1847 18.1847ZM69.8658 16.4545H68.5746V14.8864H67.032V16.4545H66.103V17.6477H67.032V21.2869C67.0234 22.5185 67.9183 23.1236 69.0774 23.0895C69.5163 23.0767 69.8189 22.9915 69.9851 22.9361L69.7251 21.7301C69.6399 21.7514 69.4652 21.7898 69.2734 21.7898C68.8857 21.7898 68.5746 21.6534 68.5746 21.0312V17.6477H69.8658V16.4545ZM73.9407 23.1278C75.8583 23.1278 77.0771 21.777 77.0771 19.7528C77.0771 17.7244 75.8583 16.3693 73.9407 16.3693C72.0231 16.3693 70.8043 17.7244 70.8043 19.7528C70.8043 21.777 72.0231 23.1278 73.9407 23.1278ZM73.9492 21.892C72.8881 21.892 72.3683 20.946 72.3683 19.7486C72.3683 18.5511 72.8881 17.5923 73.9492 17.5923C74.9933 17.5923 75.5131 18.5511 75.5131 19.7486C75.5131 20.946 74.9933 21.892 73.9492 21.892ZM78.3864 23H79.929V19.0199C79.929 18.2145 80.4659 17.669 81.1307 17.669C81.7827 17.669 82.2301 18.108 82.2301 18.7812V23H83.7429V18.9176C83.7429 18.1804 84.1818 17.669 84.9276 17.669C85.5497 17.669 86.044 18.0355 86.044 18.8452V23H87.5909V18.6065C87.5909 17.1449 86.7472 16.3693 85.5455 16.3693C84.5952 16.3693 83.8707 16.8381 83.581 17.5668H83.5128C83.2614 16.8253 82.6264 16.3693 81.7443 16.3693C80.8665 16.3693 80.2102 16.821 79.9375 17.5668H79.8608V16.4545H78.3864V23ZM89.1559 23H90.6985V16.4545H89.1559V23ZM89.9315 15.5256C90.4215 15.5256 90.8221 15.1506 90.8221 14.6903C90.8221 14.2259 90.4215 13.8509 89.9315 13.8509C89.4371 13.8509 89.0366 14.2259 89.0366 14.6903C89.0366 15.1506 89.4371 15.5256 89.9315 15.5256ZM92.1996 23H97.5732V21.7216H94.2493V21.6662L97.4624 17.5071V16.4545H92.3104V17.733H95.5746V17.7884L92.1996 22.0199V23ZM101.733 23.1278C103.259 23.1278 104.307 22.3821 104.58 21.2443L103.14 21.0824C102.931 21.6364 102.419 21.9261 101.755 21.9261C100.757 21.9261 100.097 21.2699 100.084 20.1491H104.644V19.6761C104.644 17.3793 103.263 16.3693 101.652 16.3693C99.7773 16.3693 98.5543 17.7457 98.5543 19.7656C98.5543 21.8196 99.7603 23.1278 101.733 23.1278ZM100.088 19.1094C100.135 18.2741 100.753 17.571 101.674 17.571C102.56 17.571 103.157 18.2188 103.165 19.1094H100.088Z" fill="white"/>
<path d="M32.975 15.685H28.79C28.4975 15.685 28.265 15.4525 28.265 15.16C28.265 14.8675 28.4975 14.635 28.79 14.635H32.975C33.2675 14.635 33.5 14.8675 33.5 15.16C33.5 15.4525 33.2675 15.685 32.975 15.685Z" fill="white"/>
<path d="M21.815 15.685H19.025C18.7325 15.685 18.5 15.4525 18.5 15.16C18.5 14.8675 18.7325 14.635 19.025 14.635H21.815C22.1075 14.635 22.34 14.8675 22.34 15.16C22.34 15.4525 22.1 15.685 21.815 15.685Z" fill="white"/>
<path d="M24.605 18.1225C26.2411 18.1225 27.5675 16.7962 27.5675 15.16C27.5675 13.5239 26.2411 12.1975 24.605 12.1975C22.9688 12.1975 21.6425 13.5239 21.6425 15.16C21.6425 16.7962 22.9688 18.1225 24.605 18.1225Z" fill="white"/>
<path d="M32.975 23.3575H30.185C29.8925 23.3575 29.66 23.125 29.66 22.8325C29.66 22.54 29.8925 22.3075 30.185 22.3075H32.975C33.2675 22.3075 33.5 22.54 33.5 22.8325C33.5 23.125 33.2675 23.3575 32.975 23.3575Z" fill="white"/>
<path d="M23.21 23.3575H19.025C18.7325 23.3575 18.5 23.125 18.5 22.8325C18.5 22.54 18.7325 22.3075 19.025 22.3075H23.21C23.5025 22.3075 23.735 22.54 23.735 22.8325C23.735 23.125 23.495 23.3575 23.21 23.3575Z" fill="white"/>
<path d="M27.395 25.8024C29.0311 25.8024 30.3575 24.4761 30.3575 22.8399C30.3575 21.2038 29.0311 19.8774 27.395 19.8774C25.7589 19.8774 24.4325 21.2038 24.4325 22.8399C24.4325 24.4761 25.7589 25.8024 27.395 25.8024Z" fill="white"/>
</svg>
