<svg width="15" height="13" viewBox="0 0 15 13" fill="none" xmlns="http://www.w3.org/2000/svg">
<path d="M14.5467 1.55338C14.3267 1.02004 13.8067 0.640042 13.1667 0.640042H11.78L11.4067 2.36671C11.3533 2.60004 11.1467 2.76004 10.92 2.76004C10.8867 2.76004 10.8467 2.76004 10.8133 2.74671C10.5467 2.68671 10.3733 2.42004 10.4267 2.15338L10.7533 0.633376H7.35334L6.93334 2.36671C6.88001 2.59338 6.67334 2.74671 6.44668 2.74671C6.40668 2.74671 6.36668 2.74004 6.32668 2.73338C6.06001 2.66671 5.89334 2.40004 5.96001 2.12671L6.32001 0.626709H4.96668C4.31334 0.626709 3.73334 1.05338 3.54001 1.68004L0.733343 10.7134C0.440009 11.68 1.15334 12.6667 2.16001 12.6667H10.92C11.6133 12.6667 12.2133 12.2 12.3733 11.5267L14.62 2.50671C14.66 2.34004 14.6733 2.17338 14.66 2.01338C14.6467 1.85338 14.6133 1.69338 14.5467 1.55338ZM9.80001 9.16671H4.46668C4.19334 9.16671 3.96668 8.94004 3.96668 8.66671C3.96668 8.39338 4.19334 8.16671 4.46668 8.16671H9.80001C10.0733 8.16671 10.3 8.39338 10.3 8.66671C10.3 8.94004 10.0733 9.16671 9.80001 9.16671ZM10.4667 6.50004H5.13334C4.86001 6.50004 4.63334 6.27338 4.63334 6.00004C4.63334 5.72671 4.86001 5.50004 5.13334 5.50004H10.4667C10.74 5.50004 10.9667 5.72671 10.9667 6.00004C10.9667 6.27338 10.74 6.50004 10.4667 6.50004Z" fill="white"/>
</svg>
