<svg width="143" height="32" viewBox="0 0 143 32" fill="none" xmlns="http://www.w3.org/2000/svg">
<rect width="143" height="32" rx="6" fill="#6334FE" fill-opacity="0.12"/>
<path d="M20.1882 10.0909H18.5849L15.8629 11.87V13.4467L18.473 11.7422H18.5369V21H20.1882V10.0909ZM23.1392 21H30.3196V19.5884H25.4084V19.5085L27.5763 17.2393C29.5739 15.2205 30.1438 14.2564 30.1438 13.0366C30.1438 11.2841 28.7163 9.94176 26.6602 9.94176C24.62 9.94176 23.1286 11.2628 23.1286 13.255H24.6999C24.6946 12.0831 25.451 11.3161 26.6282 11.3161C27.7362 11.3161 28.5778 11.9979 28.5778 13.0845C28.5778 14.0487 28.0025 14.7411 26.8306 15.9822L23.1392 19.8068V21ZM34.4318 19.5085H32.8977L32.8445 20.1051C32.7219 21.5487 32.381 23.0028 32.2372 23.6634H33.3665C33.6222 22.9656 34.1868 21.3675 34.3519 20.0891L34.4318 19.5085ZM40.1554 9.94176C37.8649 9.92045 36.3681 11.5664 36.3681 13.6332C36.3734 15.7159 37.8809 17.218 39.7718 17.218C40.9277 17.218 41.9185 16.6534 42.4778 15.7372H42.563C42.5577 18.2461 41.6149 19.7109 40.0169 19.7109C38.9728 19.7109 38.3017 19.0717 38.0886 18.1396H36.464C36.7037 19.9027 38.0673 21.1491 40.0169 21.1491C42.5524 21.1491 44.1397 18.9705 44.1397 15.1513C44.1344 11.1669 42.0996 9.95774 40.1554 9.94176ZM40.1607 11.3267C41.4231 11.3267 42.3553 12.3974 42.3553 13.5959C42.3606 14.8104 41.3752 15.8757 40.1287 15.8757C38.877 15.8757 37.9714 14.8743 37.9661 13.6119C37.9661 12.3441 38.9089 11.3267 40.1607 11.3267ZM49.8619 21.1811C52.3815 21.1811 53.857 19.125 53.857 15.5508C53.857 12.0032 52.3602 9.94176 49.8619 9.94176C47.3584 9.94176 45.8669 11.9979 45.8616 15.5508C45.8616 19.1197 47.3371 21.1758 49.8619 21.1811ZM49.8619 19.7589C48.3865 19.7589 47.4969 18.2781 47.4969 15.5508C47.5022 12.8342 48.3918 11.3374 49.8619 11.3374C51.3268 11.3374 52.2217 12.8342 52.2217 15.5508C52.2217 18.2781 51.3321 19.7589 49.8619 19.7589ZM59.8655 21H66.7689V19.5831H61.5115V16.2433H66.3481V14.8317H61.5115V11.5078H66.705V10.0909H59.8655V21ZM72.595 12.8182H70.9171V10.858H69.3244V12.8182H68.1259V14.0966H69.3244V18.9279C69.3191 20.4141 70.4537 21.1332 71.7108 21.1065C72.2168 21.1012 72.5577 21.0053 72.7441 20.9361L72.4565 19.6204C72.35 19.6417 72.1529 19.6896 71.8972 19.6896C71.3805 19.6896 70.9171 19.5192 70.9171 18.5977V14.0966H72.595V12.8182ZM76.1253 16.142C76.1253 14.837 76.9509 14.0913 78.0855 14.0913C79.1828 14.0913 79.838 14.7891 79.838 15.9876V21H81.4307V15.7958C81.4307 13.7557 80.3121 12.7116 78.6288 12.7116C77.3557 12.7116 76.5887 13.2656 76.2052 14.1499H76.104V10.0909H74.5326V21H76.1253V16.142ZM87.0823 21.1651C88.8667 21.1651 90.1292 20.2862 90.4914 18.9545L88.9839 18.6829C88.6963 19.4553 88.0038 19.8494 87.0983 19.8494C85.7346 19.8494 84.8184 18.9652 84.7758 17.3885H90.5926V16.8239C90.5926 13.8675 88.8241 12.7116 86.9704 12.7116C84.6906 12.7116 83.1885 14.4482 83.1885 16.9624C83.1885 19.5032 84.6693 21.1651 87.0823 21.1651ZM84.7812 16.1953C84.8451 15.0341 85.6867 14.0273 86.9811 14.0273C88.2169 14.0273 89.0265 14.9435 89.0319 16.1953H84.7812ZM92.3597 21H93.9524V16.0036C93.9524 14.9329 94.7781 14.1605 95.9073 14.1605C96.2376 14.1605 96.6104 14.2191 96.7383 14.2564V12.733C96.5785 12.7116 96.2642 12.6957 96.0618 12.6957C95.103 12.6957 94.2827 13.239 93.9844 14.1179H93.8991V12.8182H92.3597V21ZM101.35 21.1651C103.134 21.1651 104.397 20.2862 104.759 18.9545L103.252 18.6829C102.964 19.4553 102.271 19.8494 101.366 19.8494C100.002 19.8494 99.086 18.9652 99.0434 17.3885H104.86V16.8239C104.86 13.8675 103.092 12.7116 101.238 12.7116C98.9582 12.7116 97.4561 14.4482 97.4561 16.9624C97.4561 19.5032 98.9369 21.1651 101.35 21.1651ZM99.0487 16.1953C99.1127 15.0341 99.9543 14.0273 101.249 14.0273C102.484 14.0273 103.294 14.9435 103.299 16.1953H99.0487ZM111.81 17.6069C111.816 18.9972 110.782 19.6577 109.887 19.6577C108.902 19.6577 108.22 18.9439 108.22 17.8306V12.8182H106.627V18.0224C106.627 20.0518 107.741 21.1065 109.312 21.1065C110.542 21.1065 111.379 20.4567 111.757 19.5831H111.842V21H113.408V12.8182H111.81V17.6069ZM115.548 21H117.141V15.9556C117.141 14.853 117.913 14.0859 118.819 14.0859C119.703 14.0859 120.316 14.6719 120.316 15.5614V21H121.903V15.7852C121.903 14.7997 122.505 14.0859 123.544 14.0859C124.385 14.0859 125.078 14.5547 125.078 15.6626V21H126.67V15.5135C126.67 13.6438 125.626 12.7116 124.146 12.7116C122.968 12.7116 122.084 13.2763 121.69 14.1499H121.605C121.248 13.255 120.497 12.7116 119.405 12.7116C118.323 12.7116 117.519 13.2496 117.178 14.1499H117.077V12.8182H115.548V21Z" fill="#724BF2"/>
</svg>
