<svg width="146" height="32" viewBox="0 0 146 32" fill="none" xmlns="http://www.w3.org/2000/svg">
<rect width="146" height="32" rx="6" fill="#6334FE" fill-opacity="0.12"/>
<path d="M15.8203 18.8693H20.9925V21H22.5639V18.8693H24.0075V17.4737H22.5639V10.0909H20.5344L15.8203 17.5376V18.8693ZM21.0032 17.4737H17.5462V17.3885L20.918 12.0511H21.0032V17.4737ZM29.6618 21.1491C31.8883 21.1491 33.5236 19.8175 33.5183 18.0064C33.5236 16.6268 32.6873 15.636 31.2385 15.4123V15.3271C32.3784 15.0341 33.1188 14.1392 33.1135 12.9141C33.1188 11.3107 31.8031 9.94176 29.7044 9.94176C27.7015 9.94176 26.0929 11.1509 26.0396 12.9247H27.6323C27.6696 11.9233 28.6124 11.3161 29.6831 11.3161C30.7963 11.3161 31.5261 11.9925 31.5208 12.9993C31.5261 14.054 30.6792 14.7464 29.47 14.7464H28.5485V16.0888H29.47C30.9828 16.0888 31.8564 16.8558 31.8564 17.9531C31.8564 19.0131 30.9348 19.7322 29.6511 19.7322C28.4686 19.7322 27.5471 19.125 27.4831 18.1555H25.8105C25.8798 19.9347 27.4565 21.1491 29.6618 21.1491ZM37.2883 19.5085H35.7542L35.7009 20.1051C35.5784 21.5487 35.2375 23.0028 35.0937 23.6634H36.2229C36.4786 22.9656 37.0432 21.3675 37.2084 20.0891L37.2883 19.5085ZM43.0118 9.94176C40.7213 9.92045 39.2245 11.5664 39.2245 13.6332C39.2298 15.7159 40.7373 17.218 42.6283 17.218C43.7842 17.218 44.7749 16.6534 45.3343 15.7372H45.4195C45.4142 18.2461 44.4713 19.7109 42.8733 19.7109C41.8293 19.7109 41.1581 19.0717 40.945 18.1396H39.3204C39.5601 19.9027 40.9237 21.1491 42.8733 21.1491C45.4088 21.1491 46.9962 18.9705 46.9962 15.1513C46.9909 11.1669 44.9561 9.95774 43.0118 9.94176ZM43.0171 11.3267C44.2796 11.3267 45.2117 12.3974 45.2117 13.5959C45.2171 14.8104 44.2316 15.8757 42.9852 15.8757C41.7334 15.8757 40.8279 14.8743 40.8225 13.6119C40.8225 12.3441 41.7654 11.3267 43.0171 11.3267ZM52.7184 21.1811C55.2379 21.1811 56.7134 19.125 56.7134 15.5508C56.7134 12.0032 55.2166 9.94176 52.7184 9.94176C50.2148 9.94176 48.7234 11.9979 48.718 15.5508C48.718 19.1197 50.1935 21.1758 52.7184 21.1811ZM52.7184 19.7589C51.2429 19.7589 50.3533 18.2781 50.3533 15.5508C50.3587 12.8342 51.2482 11.3374 52.7184 11.3374C54.1832 11.3374 55.0781 12.8342 55.0781 15.5508C55.0781 18.2781 54.1886 19.7589 52.7184 19.7589ZM62.7219 21H69.6254V19.5831H64.3679V16.2433H69.2045V14.8317H64.3679V11.5078H69.5614V10.0909H62.7219V21ZM75.4514 12.8182H73.7735V10.858H72.1808V12.8182H70.9823V14.0966H72.1808V18.9279C72.1755 20.4141 73.3101 21.1332 74.5672 21.1065C75.0732 21.1012 75.4142 21.0053 75.6006 20.9361L75.3129 19.6204C75.2064 19.6417 75.0093 19.6896 74.7536 19.6896C74.2369 19.6896 73.7735 19.5192 73.7735 18.5977V14.0966H75.4514V12.8182ZM78.9817 16.142C78.9817 14.837 79.8074 14.0913 80.9419 14.0913C82.0392 14.0913 82.6944 14.7891 82.6944 15.9876V21H84.2871V15.7958C84.2871 13.7557 83.1685 12.7116 81.4853 12.7116C80.2122 12.7116 79.4451 13.2656 79.0616 14.1499H78.9604V10.0909H77.389V21H78.9817V16.142ZM89.9387 21.1651C91.7232 21.1651 92.9856 20.2862 93.3478 18.9545L91.8404 18.6829C91.5527 19.4553 90.8603 19.8494 89.9547 19.8494C88.5911 19.8494 87.6749 18.9652 87.6323 17.3885H93.449V16.8239C93.449 13.8675 91.6806 12.7116 89.8269 12.7116C87.5471 12.7116 86.0449 14.4482 86.0449 16.9624C86.0449 19.5032 87.5257 21.1651 89.9387 21.1651ZM87.6376 16.1953C87.7015 15.0341 88.5431 14.0273 89.8375 14.0273C91.0733 14.0273 91.883 14.9435 91.8883 16.1953H87.6376ZM95.2162 21H96.8089V16.0036C96.8089 14.9329 97.6345 14.1605 98.7638 14.1605C99.094 14.1605 99.4669 14.2191 99.5947 14.2564V12.733C99.4349 12.7116 99.1207 12.6957 98.9182 12.6957C97.9594 12.6957 97.1391 13.239 96.8408 14.1179H96.7556V12.8182H95.2162V21ZM104.206 21.1651C105.991 21.1651 107.253 20.2862 107.615 18.9545L106.108 18.6829C105.82 19.4553 105.128 19.8494 104.222 19.8494C102.859 19.8494 101.942 18.9652 101.9 17.3885H107.717V16.8239C107.717 13.8675 105.948 12.7116 104.094 12.7116C101.815 12.7116 100.312 14.4482 100.312 16.9624C100.312 19.5032 101.793 21.1651 104.206 21.1651ZM101.905 16.1953C101.969 15.0341 102.811 14.0273 104.105 14.0273C105.341 14.0273 106.151 14.9435 106.156 16.1953H101.905ZM114.667 17.6069C114.672 18.9972 113.639 19.6577 112.744 19.6577C111.758 19.6577 111.076 18.9439 111.076 17.8306V12.8182H109.484V18.0224C109.484 20.0518 110.597 21.1065 112.168 21.1065C113.399 21.1065 114.235 20.4567 114.613 19.5831H114.699V21H116.265V12.8182H114.667V17.6069ZM118.405 21H119.997V15.9556C119.997 14.853 120.77 14.0859 121.675 14.0859C122.559 14.0859 123.172 14.6719 123.172 15.5614V21H124.759V15.7852C124.759 14.7997 125.361 14.0859 126.4 14.0859C127.242 14.0859 127.934 14.5547 127.934 15.6626V21H129.527V15.5135C129.527 13.6438 128.483 12.7116 127.002 12.7116C125.825 12.7116 124.941 13.2763 124.546 14.1499H124.461C124.104 13.255 123.353 12.7116 122.261 12.7116C121.18 12.7116 120.376 13.2496 120.035 14.1499H119.933V12.8182H118.405V21Z" fill="#724BF2"/>
</svg>
